HIERARCHY
ROOT Hips
{
	OFFSET 0.00000 0.00000 0.00000
	CHANNELS 6 Xposition Yposition Zposition Yrotation Zrotation Xrotation 
	JOINT Lumbar
	{
		OFFSET 0 0 0
		CHANNELS 3 Zrotation Xrotation Yrotation
		JOINT Neck
		{
			OFFSET 0.00 0.2701 0.00
			CHANNELS 3 Zrotation Xrotation Yrotation
			End Site
			{
				OFFSET 0.00 0.1379 0.00
			}
		}
		JOINT RightShoulder
		{
			OFFSET 0.0119 0.2289 0.1181
			CHANNELS 3 Zrotation Xrotation Yrotation
			JOINT RightElbow
			{
				OFFSET 0.00 -0.1475 0.00
				CHANNELS 2 Zrotation Yrotation
				JOINT RightWrist
				{
					OFFSET 0.00 -0.1605 0.00
					CHANNELS 2 Zrotation Xrotation
					End Site
					{
						OFFSET 0.0040 -0.1068 0.0006
					}
				}
			}
		}
		JOINT LeftShoulder
		{
			OFFSET 0.0119 0.2289 -0.1181
			CHANNELS 3 Zrotation Xrotation Yrotation
			JOINT LeftElbow
			{
				OFFSET 0.00 -0.1475 0.00
				CHANNELS 2 Zrotation Yrotation
				JOINT LeftWrist
				{
					OFFSET 0.00 -0.1605 0.00
					CHANNELS 2 Zrotation Xrotation
					End Site
					{
						OFFSET 0.0040 -0.1068 -0.0006
					}
				}
			}
		}
	}
	JOINT RightHip
	{
		OFFSET 0.0316 -0.0424 0.0458
		CHANNELS 3 Zrotation Xrotation Yrotation
		JOINT RightKnee
		{
			OFFSET 0.00 -0.2438 0.00
			CHANNELS 1 Zrotation
			JOINT RightAnkle
			{
				OFFSET 0.00 -0.2449 0.00
				CHANNELS 3 Zrotation Xrotation Yrotation
				End Site
				{
					OFFSET 0.1237 -0.0542 0.0051
				}
			}
		}
	}
	JOINT LeftHip
	{
		OFFSET 0.0316 -0.0424 -0.0458
		CHANNELS 3 Zrotation Xrotation Yrotation
		JOINT LeftKnee
		{
			OFFSET 0.00 -0.2438 0.00
			CHANNELS 1 Zrotation
			JOINT LeftAnkle
			{
				OFFSET 0.00 -0.2449 0.00
				CHANNELS 3 Zrotation Xrotation Yrotation
				End Site
				{
					OFFSET 0.1237 -0.0542 -0.0051
				}
			}
		}
	}
}
MOTION
Frames: 11
Frame Time: 0.02
0.78673 7e-05 0.37391 787.82391 -30.0504 -7.90371 36.92988 6.54876 3.25502 -13.92959 3.01204 -0.83079 169.76192 -160.81345 -90.01085 5.37984 87.12507 -47.99399 -4.66791 -36.94481 46.8348 -26.32774 110.50479 -93.35693 15.79097 1.33287 46.94635 9.18771 -22.61272 -28.1142 -6.97435 -1.99781 -1.65535 42.42475 20.51531 -11.5726 -66.9909 -13.07105 -0.68654 0.35653
0.79123 0.00118 0.36632 788.07333 -29.95158 -7.73508 36.75062 6.51515 4.68294 -13.5574 3.48563 -0.83079 169.96929 -160.26927 -90.01099 5.26512 83.72963 -54.72566 -7.68705 -36.4557 47.02194 -26.66853 110.68755 -95.46821 16.34067 1.00789 45.33082 9.35183 -22.83387 -27.22615 -6.9197 -1.95383 -1.63192 44.58228 20.68546 -10.62788 -68.1003 -12.89119 -0.51311 0.45185
0.7952 0.00234 0.35888 788.24543 -29.96659 -7.48292 36.65882 6.39477 6.15833 -13.1905 3.921 -0.83079 169.84932 -159.57066 -90.01106 5.32176 79.25202 -60.75191 -11.86009 -36.12101 47.15865 -26.85217 110.93246 -98.03793 16.99792 0.61218 43.82831 9.48256 -22.7249 -26.20821 -6.87988 -1.92113 -1.61576 46.62991 20.6414 -9.56707 -68.28015 -12.46377 -0.27142 0.57996
0.79938 0.00345 0.35137 788.46105 -29.93376 -7.2683 36.52754 6.31605 7.59399 -12.82046 4.35632 -0.83079 169.88259 -158.8127 -90.01116 5.59238 75.39394 -66.95715 -15.38003 -35.70856 47.31741 -27.11657 111.13735 -100.2471 17.57195 0.27265 42.28199 9.6256 -22.76546 -25.25433 -6.83309 -1.88547 -1.59736 48.7084 20.68873 -8.55292 -68.80208 -12.15665 -0.0673 0.68955
0.80366 0.0047 0.34387 788.638 -29.88313 -7.054 36.39113 6.2275 9.11264 -12.45171 4.86415 -0.83079 169.89038 -158.58884 -90.01126 4.64611 71.00896 -73.83586 -19.4402 -35.32386 47.48342 -27.34619 111.39128 -103.08089 18.2893 -0.16526 40.69451 9.78164 -22.81023 -24.2632 -6.79761 -1.84009 -1.57466 50.88635 20.767 -7.54252 -69.67724 -11.81702 0.16471 0.8145
0.80762 0.00565 0.33638 788.87953 -29.89693 -6.82034 36.28759 6.13891 10.46474 -12.08295 5.21204 -0.83079 169.87551 -157.23042 -90.01135 6.25639 67.45868 -79.11869 -22.65352 -34.92116 47.61993 -27.60753 111.55824 -104.74624 18.73888 -0.4188 39.22327 9.90285 -22.76771 -23.32575 -6.72877 -1.81769 -1.56205 52.82069 20.72735 -6.50516 -69.58488 -11.48635 0.35541 0.91558
0.81088 0.00578 0.32889 789.30377 -30.06382 -6.54656 36.2555 6.072 11.3766 -11.7041 5.13094 -0.83079 169.88451 -152.66113 -90.01141 15.038 66.49129 -80.1213 -23.20656 -34.41239 47.70112 -28.01509 111.46824 -102.85927 18.36438 -0.11336 38.04502 9.92914 -22.55657 -22.55952 -6.6841 -1.85811 -1.58229 54.14816 20.41913 -5.42404 -67.12119 -11.23851 0.40742 0.93835
0.81382 0.0056 0.32139 789.79833 -30.29158 -6.25778 36.25409 6.00792 12.11298 -11.32692 4.89022 -0.83079 169.88183 -146.98065 -90.01146 26.35209 66.39737 -79.53877 -22.8746 -33.88382 47.75204 -28.45605 111.28916 -99.81636 17.72589 0.37454 36.98172 9.92245 -22.27047 -21.85621 -6.58623 -1.92111 -1.61144 55.22544 19.99813 -4.32379 -63.70428 -11.00853 0.41697 0.93678
0.81688 0.00553 0.31388 790.27091 -30.48933 -5.98046 36.23731 5.94235 12.90859 -10.95479 4.71999 -0.83079 169.88138 -141.88063 -90.01152 36.41309 65.89305 -79.70158 -22.97392 -33.37711 47.80673 -28.86783 111.15175 -97.44759 17.24757 0.75677 35.86672 9.93534 -22.0233 -21.13124 -6.43004 -1.97228 -1.63191 56.38875 19.62475 -3.23239 -60.671 -10.77203 0.45081 0.94902
0.82002 0.00558 0.30647 790.69999 -30.69971 -5.67999 36.22781 5.87496 13.79217 -10.55799 4.55515 -0.83079 169.88244 -136.44239 -90.01158 46.93492 65.40726 -79.73853 -22.99163 -32.82222 47.89952 -29.33245 111.01065 -94.48266 16.6083 1.23021 34.75125 9.92828 -21.74268 -20.36968 -6.60942 -2.02985 -1.67135 57.66276 19.25875 -2.1307 -57.80202 -10.52051 0.46537 0.95045
0.82293 0.00531 0.29883 791.23569 -30.89829 -5.42602 36.21145 5.8127 14.45069 -10.21327 4.3441 -0.83079 169.88177 -131.46454 -90.01162 57.06673 65.10521 -79.66671 -22.95298 -32.35999 47.90937 -29.69801 110.85632 -92.45875 16.23396 1.56089 33.66508 9.95465 -21.52 -19.70418 -6.09363 -2.08007 -1.67432 58.65137 18.85408 -1.05397 -54.39244 -10.30728 0.50988 0.96864
